<?xml version="1.0" standalone="no"?>
<!DOCTYPE svg PUBLIC "-//W3C//DTD SVG 20010904//EN"
 "http://www.w3.org/TR/2001/REC-SVG-20010904/DTD/svg10.dtd">
<svg version="1.0" xmlns="http://www.w3.org/2000/svg"
 width="117.000000pt" height="117.000000pt" viewBox="0 0 117.000000 117.000000"
 preserveAspectRatio="xMidYMid meet">
<metadata>
Created by potrace 1.11, written by Peter Selinger 2001-2013
</metadata>
<g transform="translate(0.000000,117.000000) scale(0.100000,-0.100000)"
fill="#000000" stroke="none">
<path d="M399 1141 c-16 -16 -30 -35 -30 -43 -1 -12 -5 -52 -8 -85 -1 -10 -37
-13 -146 -13 l-145 0 -32 -29 -33 -29 0 -442 0 -442 33 -29 32 -29 515 0 515
0 32 29 33 29 0 441 0 441 -28 27 c-27 28 -29 28 -177 31 -83 2 -150 6 -151
10 0 4 -2 26 -3 49 -4 50 -28 90 -62 103 -14 6 -91 10 -170 10 l-146 0 -29
-29z m296 -116 c0 -19 -8 -20 -107 -23 -60 -1 -108 1 -109 5 0 4 -2 16 -4 26
-3 16 6 17 108 15 104 -3 112 -4 112 -23z"/>
</g>
</svg>
